<?xml version="1.0" encoding="UTF-8" standalone="no"?>
<!-- Generator: Adobe Illustrator 22.0.1, SVG Export Plug-In . SVG Version: 6.00 Build 0)  -->

<svg
   version="1.1"
   x="0px"
   y="0px"
   viewBox="0 0 288 252"
   style="enable-background:new 0 0 288 252;"
   xml:space="preserve"
   id="svg140"
   sodipodi:docname="logo_footer1.svg"
   inkscape:version="1.2 (1:1.2.1+202207142221+cd75a1ee6d)"
   xmlns:inkscape="http://www.inkscape.org/namespaces/inkscape"
   xmlns:sodipodi="http://sodipodi.sourceforge.net/DTD/sodipodi-0.dtd"
   xmlns="http://www.w3.org/2000/svg"
   xmlns:svg="http://www.w3.org/2000/svg"><defs
   id="defs144" /><sodipodi:namedview
   id="namedview142"
   pagecolor="#505050"
   bordercolor="#ffffff"
   borderopacity="1"
   inkscape:showpageshadow="0"
   inkscape:pageopacity="0"
   inkscape:pagecheckerboard="1"
   inkscape:deskcolor="#505050"
   showgrid="false"
   inkscape:zoom="2.7779195"
   inkscape:cx="130.85332"
   inkscape:cy="131.03331"
   inkscape:window-width="1920"
   inkscape:window-height="1043"
   inkscape:window-x="3286"
   inkscape:window-y="312"
   inkscape:window-maximized="1"
   inkscape:current-layer="svg140" />
<style
   type="text/css"
   id="style97">
	.st0{fill:#0052E2;}
	.st1{fill:#FFFFFF;}
</style>
<g
   id="Layer_1"
   transform="translate(0,-34)">
	<g
   id="g107">
		<path
   class="st0"
   d="M 15,142.6 V 55.1 H 74 V 65.4 H 26.6 v 27.1 h 41.1 v 10.3 H 26.6 v 39.7 H 15 Z"
   id="path99"
   style="fill:#f3f3f3;fill-opacity:1" />
		<path
   class="st0"
   d="M 91.1,142.6 V 55.1 h 11.6 v 87.5 z"
   id="path101"
   style="fill:#f3f3f3;fill-opacity:1" />
		<path
   class="st0"
   d="M 113.4,142.6 147,55.1 h 12.5 l 35.8,87.5 h -13.2 l -10.2,-26.5 h -36.6 l -9.6,26.5 z m 25.3,-35.9 h 29.7 l -9.1,-24.2 c -2.8,-7.4 -4.9,-13.4 -6.2,-18.1 -1.1,5.6 -2.7,11.2 -4.7,16.7 z"
   id="path103"
   style="fill:#ffffff;fill-opacity:1" />
		<path
   class="st0"
   d="M 204.5,142.6 V 55.1 h 11.9 l 46,68.7 V 55.1 h 11.1 v 87.5 h -11.9 l -46,-68.7 v 68.7 z"
   id="path105"
   style="fill:#ffffff;fill-opacity:1" />
	</g>
</g>
<g
   id="Layer_2"
   style="display:none">
	<path
   class="st0"
   d="M 275.2,207.7 H 13.5 C 8.8,207.7 5,203.9 5,199.2 v -43.7 c 0,-4.7 3.8,-8.5 8.5,-8.5 h 261.7 c 4.7,0 8.5,3.8 8.5,8.5 v 43.7 c 0,4.6 -3.9,8.5 -8.5,8.5 z"
   id="path110"
   inkscape:label="path110"
   style="fill:#f3f3f3;fill-opacity:1" />
</g>
<g
   id="Layer_3"
   inkscape:label="Layer_3"
   transform="translate(0,-34)">
	<g
   id="g137">
		<path
   class="st1"
   d="m 13.3,192 v -26.5 h 8 c 1.8,0 3.2,0.1 4.1,0.4 1.3,0.3 2.5,1 3.4,1.9 1.2,1.2 2.1,2.7 2.7,4.5 0.6,1.8 0.9,3.9 0.9,6.3 0,2 -0.2,3.8 -0.6,5.4 -0.4,1.6 -0.9,2.8 -1.6,3.9 -0.6,1 -1.3,1.8 -2.1,2.4 -0.8,0.6 -1.7,1 -2.8,1.3 -1.1,0.3 -2.3,0.5 -3.7,0.5 h -8.3 z m 3,-3.2 h 4.9 c 1.5,0 2.7,-0.2 3.6,-0.5 0.9,-0.3 1.6,-0.8 2.1,-1.4 0.7,-0.8 1.3,-2 1.7,-3.4 0.4,-1.4 0.6,-3.1 0.6,-5.1 0,-2.8 -0.4,-4.9 -1.2,-6.4 -0.8,-1.5 -1.8,-2.5 -2.9,-3 -0.8,-0.4 -2.1,-0.5 -4,-0.5 h -4.9 v 20.3 z"
   id="path113" />
		<path
   class="st1"
   d="m 36.6,192 v -26.5 h 16.7 v 3.1 H 39.7 v 8.1 h 12.8 v 3.1 H 39.7 v 9 h 14.2 v 3.1 H 36.6 Z"
   id="path115" />
		<path
   class="st1"
   d="m 57.1,183.5 2.9,-0.3 c 0.1,1.3 0.5,2.4 1,3.3 0.5,0.9 1.3,1.5 2.3,2.1 1,0.5 2.2,0.8 3.5,0.8 1.2,0 2.2,-0.2 3.1,-0.6 0.9,-0.4 1.6,-0.9 2,-1.6 0.4,-0.7 0.7,-1.4 0.7,-2.3 0,-0.8 -0.2,-1.6 -0.6,-2.2 -0.4,-0.6 -1.1,-1.1 -2.1,-1.6 -0.6,-0.3 -2,-0.7 -4.1,-1.3 -2.1,-0.6 -3.6,-1.1 -4.5,-1.7 -1.1,-0.7 -1.9,-1.5 -2.5,-2.5 -0.6,-1 -0.8,-2.1 -0.8,-3.3 0,-1.3 0.3,-2.6 1,-3.8 0.7,-1.2 1.6,-2 2.9,-2.6 1.3,-0.6 2.7,-0.9 4.2,-0.9 1.7,0 3.2,0.3 4.5,0.9 1.3,0.6 2.3,1.6 3,2.8 0.7,1.2 1.1,2.6 1.1,4.2 l -2.9,0.3 c -0.2,-1.7 -0.7,-2.9 -1.6,-3.8 -0.9,-0.9 -2.2,-1.3 -4,-1.3 -1.8,0 -3.2,0.4 -4,1.2 -0.8,0.8 -1.3,1.7 -1.3,2.8 0,1 0.3,1.7 0.9,2.4 0.6,0.6 2.1,1.2 4.6,1.9 2.5,0.6 4.2,1.2 5.1,1.7 1.3,0.7 2.3,1.6 3,2.7 0.6,1.1 1,2.3 1,3.8 0,1.4 -0.4,2.7 -1.1,4 -0.7,1.2 -1.7,2.2 -3,2.9 -1.3,0.7 -2.8,1 -4.4,1 -2.1,0 -3.8,-0.3 -5.3,-1 -1.4,-0.7 -2.5,-1.8 -3.3,-3.2 -0.9,-1.5 -1.3,-3.1 -1.3,-4.8 z"
   id="path117" />
		<path
   class="st1"
   d="m 80.1,192 v -26.5 h 3.1 V 192 Z"
   id="path119" />
		<path
   class="st1"
   d="m 99.4,181.6 v -3.1 h 9.8 v 9.8 c -1.5,1.4 -3,2.4 -4.6,3.1 -1.6,0.7 -3.2,1 -4.9,1 -2.3,0 -4.3,-0.6 -6.2,-1.7 -1.9,-1.1 -3.3,-2.7 -4.2,-4.8 -0.9,-2.1 -1.4,-4.5 -1.4,-7.1 0,-2.6 0.5,-5 1.4,-7.2 0.9,-2.2 2.3,-3.9 4.1,-5 1.8,-1.1 3.8,-1.6 6.1,-1.6 1.7,0 3.2,0.3 4.5,0.9 1.3,0.6 2.4,1.5 3.2,2.6 0.8,1.1 1.3,2.6 1.7,4.3 l -2.8,0.9 c -0.3,-1.4 -0.8,-2.4 -1.3,-3.2 -0.5,-0.8 -1.2,-1.4 -2.2,-1.9 -1,-0.5 -2,-0.7 -3.2,-0.7 -1.4,0 -2.6,0.2 -3.6,0.7 -1,0.5 -1.8,1.1 -2.5,1.9 -0.6,0.8 -1.1,1.7 -1.5,2.6 -0.6,1.6 -0.9,3.4 -0.9,5.3 0,2.4 0.4,4.3 1.1,5.9 0.7,1.6 1.7,2.8 3.1,3.5 1.4,0.7 2.8,1.2 4.3,1.2 1.3,0 2.6,-0.3 3.9,-0.9 1.3,-0.6 2.2,-1.2 2.9,-1.9 v -4.9 h -6.8 z"
   id="path121" />
		<path
   class="st1"
   d="m 113.6,192 v -26.5 h 3.1 l 12.1,20.8 v -20.8 h 2.9 V 192 h -3.1 L 116.5,171.2 V 192 Z"
   id="path123" />
		<path
   class="st1"
   d="m 144.9,183.5 2.9,-0.3 c 0.1,1.3 0.5,2.4 1,3.3 0.5,0.8 1.3,1.5 2.3,2.1 1,0.5 2.2,0.8 3.5,0.8 1.2,0 2.2,-0.2 3.1,-0.6 0.9,-0.4 1.6,-0.9 2,-1.6 0.4,-0.7 0.7,-1.4 0.7,-2.3 0,-0.8 -0.2,-1.6 -0.6,-2.2 -0.4,-0.6 -1.1,-1.1 -2.1,-1.6 -0.6,-0.3 -2,-0.7 -4.1,-1.3 -2.1,-0.6 -3.6,-1.1 -4.5,-1.7 -1.1,-0.7 -1.9,-1.5 -2.5,-2.5 -0.6,-1 -0.8,-2.1 -0.8,-3.3 0,-1.3 0.3,-2.6 1,-3.8 0.7,-1.2 1.6,-2 2.9,-2.6 1.3,-0.6 2.7,-0.9 4.2,-0.9 1.7,0 3.2,0.3 4.5,0.9 1.3,0.6 2.3,1.6 3,2.8 0.7,1.2 1.1,2.6 1.1,4.2 l -2.9,0.3 c -0.2,-1.7 -0.7,-2.9 -1.6,-3.8 -0.9,-0.9 -2.2,-1.3 -4,-1.3 -1.8,0 -3.2,0.4 -4,1.2 -0.8,0.8 -1.3,1.7 -1.3,2.8 0,1 0.3,1.7 0.9,2.4 0.6,0.6 2.1,1.2 4.6,1.9 2.5,0.6 4.2,1.2 5.1,1.7 1.3,0.7 2.3,1.6 3,2.7 0.6,1.1 1,2.3 1,3.8 0,1.4 -0.4,2.7 -1.1,4 -0.7,1.2 -1.7,2.2 -3,2.9 -1.3,0.7 -2.8,1 -4.4,1 -2.1,0 -3.8,-0.3 -5.3,-1 -1.4,-0.7 -2.5,-1.8 -3.3,-3.2 -0.9,-1.5 -1.3,-3.1 -1.3,-4.8 z"
   id="path125"
   style="fill:#ffffff;fill-opacity:1" />
		<path
   class="st1"
   d="M 173.9,192 V 180.8 L 165,165.5 h 3.7 l 4.6,8 c 0.8,1.5 1.6,3 2.3,4.5 0.7,-1.4 1.5,-2.9 2.5,-4.7 l 4.5,-7.8 h 3.6 L 177,180.8 V 192 Z"
   id="path127"
   style="fill:#ffffff;fill-opacity:1" />
		<path
   class="st1"
   d="m 187.9,183.5 2.9,-0.3 c 0.1,1.3 0.5,2.4 1,3.3 0.5,0.8 1.3,1.5 2.3,2.1 1,0.6 2.2,0.8 3.5,0.8 1.2,0 2.2,-0.2 3.1,-0.6 0.9,-0.4 1.6,-0.9 2,-1.6 0.4,-0.7 0.7,-1.4 0.7,-2.3 0,-0.8 -0.2,-1.6 -0.6,-2.2 -0.4,-0.6 -1.1,-1.1 -2.1,-1.6 -0.6,-0.3 -2,-0.7 -4.1,-1.3 -2.1,-0.6 -3.6,-1.1 -4.5,-1.7 -1.1,-0.7 -1.9,-1.5 -2.5,-2.5 -0.5,-1 -0.8,-2.1 -0.8,-3.3 0,-1.3 0.3,-2.6 1,-3.8 0.7,-1.2 1.6,-2 2.9,-2.6 1.3,-0.6 2.7,-0.9 4.2,-0.9 1.7,0 3.2,0.3 4.5,0.9 1.3,0.6 2.3,1.6 3,2.8 0.7,1.2 1.1,2.6 1.1,4.2 l -2.9,0.3 c -0.2,-1.7 -0.7,-2.9 -1.6,-3.8 -0.9,-0.9 -2.2,-1.3 -4,-1.3 -1.8,0 -3.2,0.4 -4,1.2 -0.8,0.8 -1.3,1.7 -1.3,2.8 0,1 0.3,1.7 0.9,2.4 0.6,0.6 2.1,1.2 4.6,1.9 2.5,0.6 4.2,1.2 5.1,1.7 1.3,0.7 2.3,1.6 3,2.7 0.6,1.1 1,2.3 1,3.8 0,1.4 -0.4,2.7 -1.1,4 -0.7,1.2 -1.7,2.2 -3,2.9 -1.3,0.7 -2.8,1 -4.4,1 -2.1,0 -3.8,-0.3 -5.3,-1 -1.4,-0.7 -2.5,-1.8 -3.3,-3.2 -0.9,-1.5 -1.3,-3.1 -1.3,-4.8 z"
   id="path129"
   style="fill:#ffffff;fill-opacity:1" />
		<path
   class="st1"
   d="m 216.3,192 v -23.4 h -7.6 v -3.1 H 227 v 3.1 h -7.6 V 192 Z"
   id="path131"
   style="fill:#ffffff;fill-opacity:1" />
		<path
   class="st1"
   d="m 230.2,192 v -26.5 h 16.7 v 3.1 h -13.6 v 8.1 H 246 v 3.1 h -12.8 v 9 h 14.2 v 3.1 h -17.2 z"
   id="path133"
   style="fill:#ffffff;fill-opacity:1" />
		<path
   class="st1"
   d="m 251.5,192 v -26.5 h 4.6 l 5.5,18.8 c 0.5,1.7 0.9,3.1 1.1,3.9 0.3,-1 0.7,-2.4 1.2,-4.2 l 5.5,-18.4 h 4.1 V 192 h -2.9 v -22.2 l -6.7,22.2 h -2.8 l -6.7,-22.6 V 192 Z"
   id="path135"
   style="fill:#ffffff;fill-opacity:1" />
	</g>
</g>
</svg>
