<?xml version="1.0" encoding="utf-8"?>
<!-- Generator: Adobe Illustrator 22.0.1, SVG Export Plug-In . SVG Version: 6.00 Build 0)  -->
<svg version="1.1" xmlns="http://www.w3.org/2000/svg" xmlns:xlink="http://www.w3.org/1999/xlink" x="0px" y="0px"
	 viewBox="0 0 288 252" style="enable-background:new 0 0 288 252;" xml:space="preserve">
<style type="text/css">
	.st0{fill:#0052E2;}
	.st1{fill:#FFFFFF;}
</style>
<g id="Layer_1">
	<g>
		<path class="st0" d="M15,142.6V55.1h59v10.3H26.6v27.1h41.1v10.3H26.6v39.7H15z"/>
		<path class="st0" d="M91.1,142.6V55.1h11.6v87.5H91.1z"/>
		<path class="st0" d="M113.4,142.6L147,55.1h12.5l35.8,87.5h-13.2l-10.2-26.5h-36.6l-9.6,26.5H113.4z M138.7,106.7h29.7l-9.1-24.2
			c-2.8-7.4-4.9-13.4-6.2-18.1c-1.1,5.6-2.7,11.2-4.7,16.7L138.7,106.7z"/>
		<path class="st0" d="M204.5,142.6V55.1h11.9l46,68.7V55.1h11.1v87.5h-11.9l-46-68.7v68.7H204.5z"/>
	</g>
</g>
<g id="Layer_2">
	<path class="st0" d="M275.2,207.7H13.5c-4.7,0-8.5-3.8-8.5-8.5v-43.7c0-4.7,3.8-8.5,8.5-8.5h261.7c4.7,0,8.5,3.8,8.5,8.5v43.7
		C283.7,203.8,279.8,207.7,275.2,207.7z"/>
</g>
<g id="Layer_3">
	<g>
		<path class="st1" d="M13.3,192v-26.5h8c1.8,0,3.2,0.1,4.1,0.4c1.3,0.3,2.5,1,3.4,1.9c1.2,1.2,2.1,2.7,2.7,4.5s0.9,3.9,0.9,6.3
			c0,2-0.2,3.8-0.6,5.4c-0.4,1.6-0.9,2.8-1.6,3.9c-0.6,1-1.3,1.8-2.1,2.4c-0.8,0.6-1.7,1-2.8,1.3c-1.1,0.3-2.3,0.5-3.7,0.5H13.3z
			 M16.3,188.8h4.9c1.5,0,2.7-0.2,3.6-0.5c0.9-0.3,1.6-0.8,2.1-1.4c0.7-0.8,1.3-2,1.7-3.4c0.4-1.4,0.6-3.1,0.6-5.1
			c0-2.8-0.4-4.9-1.2-6.4c-0.8-1.5-1.8-2.5-2.9-3c-0.8-0.4-2.1-0.5-4-0.5h-4.9V188.8z"/>
		<path class="st1" d="M36.6,192v-26.5h16.7v3.1H39.7v8.1h12.8v3.1H39.7v9h14.2v3.1H36.6z"/>
		<path class="st1" d="M57.1,183.5l2.9-0.3c0.1,1.3,0.5,2.4,1,3.3s1.3,1.5,2.3,2.1c1,0.5,2.2,0.8,3.5,0.8c1.2,0,2.2-0.2,3.1-0.6
			c0.9-0.4,1.6-0.9,2-1.6s0.7-1.4,0.7-2.3c0-0.8-0.2-1.6-0.6-2.2c-0.4-0.6-1.1-1.1-2.1-1.6c-0.6-0.3-2-0.7-4.1-1.3
			c-2.1-0.6-3.6-1.1-4.5-1.7c-1.1-0.7-1.9-1.5-2.5-2.5s-0.8-2.1-0.8-3.3c0-1.3,0.3-2.6,1-3.8c0.7-1.2,1.6-2,2.9-2.6
			c1.3-0.6,2.7-0.9,4.2-0.9c1.7,0,3.2,0.3,4.5,0.9c1.3,0.6,2.3,1.6,3,2.8s1.1,2.6,1.1,4.2l-2.9,0.3c-0.2-1.7-0.7-2.9-1.6-3.8
			c-0.9-0.9-2.2-1.3-4-1.3c-1.8,0-3.2,0.4-4,1.2c-0.8,0.8-1.3,1.7-1.3,2.8c0,1,0.3,1.7,0.9,2.4c0.6,0.6,2.1,1.2,4.6,1.9
			c2.5,0.6,4.2,1.2,5.1,1.7c1.3,0.7,2.3,1.6,3,2.7c0.6,1.1,1,2.3,1,3.8c0,1.4-0.4,2.7-1.1,4c-0.7,1.2-1.7,2.2-3,2.9
			c-1.3,0.7-2.8,1-4.4,1c-2.1,0-3.8-0.3-5.3-1c-1.4-0.7-2.5-1.8-3.3-3.2C57.5,186.8,57.1,185.2,57.1,183.5z"/>
		<path class="st1" d="M80.1,192v-26.5h3.1V192H80.1z"/>
		<path class="st1" d="M99.4,181.6v-3.1l9.8,0v9.8c-1.5,1.4-3,2.4-4.6,3.1c-1.6,0.7-3.2,1-4.9,1c-2.3,0-4.3-0.6-6.2-1.7
			c-1.9-1.1-3.3-2.7-4.2-4.8c-0.9-2.1-1.4-4.5-1.4-7.1c0-2.6,0.5-5,1.4-7.2c0.9-2.2,2.3-3.9,4.1-5s3.8-1.6,6.1-1.6
			c1.7,0,3.2,0.3,4.5,0.9c1.3,0.6,2.4,1.5,3.2,2.6c0.8,1.1,1.3,2.6,1.7,4.3l-2.8,0.9c-0.3-1.4-0.8-2.4-1.3-3.2
			c-0.5-0.8-1.2-1.4-2.2-1.9c-1-0.5-2-0.7-3.2-0.7c-1.4,0-2.6,0.2-3.6,0.7s-1.8,1.1-2.5,1.9c-0.6,0.8-1.1,1.7-1.5,2.6
			c-0.6,1.6-0.9,3.4-0.9,5.3c0,2.4,0.4,4.3,1.1,5.9c0.7,1.6,1.7,2.8,3.1,3.5s2.8,1.2,4.3,1.2c1.3,0,2.6-0.3,3.9-0.9s2.2-1.2,2.9-1.9
			v-4.9H99.4z"/>
		<path class="st1" d="M113.6,192v-26.5h3.1l12.1,20.8v-20.8h2.9V192h-3.1l-12.1-20.8V192H113.6z"/>
		<path class="st1" d="M144.9,183.5l2.9-0.3c0.1,1.3,0.5,2.4,1,3.3c0.5,0.8,1.3,1.5,2.3,2.1c1,0.5,2.2,0.8,3.5,0.8
			c1.2,0,2.2-0.2,3.1-0.6c0.9-0.4,1.6-0.9,2-1.6c0.4-0.7,0.7-1.4,0.7-2.3c0-0.8-0.2-1.6-0.6-2.2s-1.1-1.1-2.1-1.6
			c-0.6-0.3-2-0.7-4.1-1.3c-2.1-0.6-3.6-1.1-4.5-1.7c-1.1-0.7-1.9-1.5-2.5-2.5s-0.8-2.1-0.8-3.3c0-1.3,0.3-2.6,1-3.8
			c0.7-1.2,1.6-2,2.9-2.6s2.7-0.9,4.2-0.9c1.7,0,3.2,0.3,4.5,0.9s2.3,1.6,3,2.8c0.7,1.2,1.1,2.6,1.1,4.2l-2.9,0.3
			c-0.2-1.7-0.7-2.9-1.6-3.8c-0.9-0.9-2.2-1.3-4-1.3c-1.8,0-3.2,0.4-4,1.2c-0.8,0.8-1.3,1.7-1.3,2.8c0,1,0.3,1.7,0.9,2.4
			c0.6,0.6,2.1,1.2,4.6,1.9c2.5,0.6,4.2,1.2,5.1,1.7c1.3,0.7,2.3,1.6,3,2.7c0.6,1.1,1,2.3,1,3.8c0,1.4-0.4,2.7-1.1,4
			c-0.7,1.2-1.7,2.2-3,2.9c-1.3,0.7-2.8,1-4.4,1c-2.1,0-3.8-0.3-5.3-1c-1.4-0.7-2.5-1.8-3.3-3.2
			C145.3,186.8,144.9,185.2,144.9,183.5z"/>
		<path class="st1" d="M173.9,192v-11.2l-8.9-15.3h3.7l4.6,8c0.8,1.5,1.6,3,2.3,4.5c0.7-1.4,1.5-2.9,2.5-4.7l4.5-7.8h3.6l-9.2,15.3
			V192H173.9z"/>
		<path class="st1" d="M187.9,183.5l2.9-0.3c0.1,1.3,0.5,2.4,1,3.3c0.5,0.8,1.3,1.5,2.3,2.1s2.2,0.8,3.5,0.8c1.2,0,2.2-0.2,3.1-0.6
			c0.9-0.4,1.6-0.9,2-1.6c0.4-0.7,0.7-1.4,0.7-2.3c0-0.8-0.2-1.6-0.6-2.2s-1.1-1.1-2.1-1.6c-0.6-0.3-2-0.7-4.1-1.3
			c-2.1-0.6-3.6-1.1-4.5-1.7c-1.1-0.7-1.9-1.5-2.5-2.5c-0.5-1-0.8-2.1-0.8-3.3c0-1.3,0.3-2.6,1-3.8c0.7-1.2,1.6-2,2.9-2.6
			c1.3-0.6,2.7-0.9,4.2-0.9c1.7,0,3.2,0.3,4.5,0.9s2.3,1.6,3,2.8c0.7,1.2,1.1,2.6,1.1,4.2l-2.9,0.3c-0.2-1.7-0.7-2.9-1.6-3.8
			c-0.9-0.9-2.2-1.3-4-1.3c-1.8,0-3.2,0.4-4,1.2c-0.8,0.8-1.3,1.7-1.3,2.8c0,1,0.3,1.7,0.9,2.4c0.6,0.6,2.1,1.2,4.6,1.9
			c2.5,0.6,4.2,1.2,5.1,1.7c1.3,0.7,2.3,1.6,3,2.7c0.6,1.1,1,2.3,1,3.8c0,1.4-0.4,2.7-1.1,4c-0.7,1.2-1.7,2.2-3,2.9
			c-1.3,0.7-2.8,1-4.4,1c-2.1,0-3.8-0.3-5.3-1c-1.4-0.7-2.5-1.8-3.3-3.2C188.3,186.8,187.9,185.2,187.9,183.5z"/>
		<path class="st1" d="M216.3,192v-23.4h-7.6v-3.1H227v3.1h-7.6V192H216.3z"/>
		<path class="st1" d="M230.2,192v-26.5h16.7v3.1h-13.6v8.1H246v3.1h-12.8v9h14.2v3.1H230.2z"/>
		<path class="st1" d="M251.5,192v-26.5h4.6l5.5,18.8c0.5,1.7,0.9,3.1,1.1,3.9c0.3-1,0.7-2.4,1.2-4.2l5.5-18.4h4.1V192h-2.9v-22.2
			l-6.7,22.2h-2.8l-6.7-22.6V192H251.5z"/>
	</g>
</g>
</svg>
